<svg width="32" height="32" fill="none" xmlns="http://www.w3.org/2000/svg"><path fill-rule="evenodd" clip-rule="evenodd" d="M0 16a16 16 0 1 1 32 0 16 16 0 0 1-32 0Zm16.95 7.74a5.08 5.08 0 0 0 3.41-1.56 4.78 4.78 0 0 0 1.18-3.3 4.16 4.16 0 0 0-2.1-3.77c-.64-.37-1.52-.76-2.65-1.17a8.06 8.06 0 0 1-2-.95 1.34 1.34 0 0 1-.47-1.1c0-.46.16-.86.49-1.19.32-.33.75-.5 1.28-.5 1.07 0 1.86.74 2.37 2.21l2.6-1.07c-.62-2.14-1.99-3.34-4.1-3.6V6h-1.9v1.75c-1.4.2-2.43.74-3.08 1.62a4.93 4.93 0 0 0-.44 5.22c.37.63.85 1.12 1.43 1.48.59.35 1.4.7 2.44 1.07a9.1 9.1 0 0 1 2.25 1.01c.33.27.5.66.5 1.18 0 .5-.17.93-.5 1.28-.34.35-.87.53-1.58.53-1.53 0-2.42-.83-2.7-2.48l-2.92.77c.59 2.62 2.12 4.06 4.6 4.32V26h1.9v-2.26Z" fill="#fff"/></svg>
