<svg width="112" height="18" fill="none" xmlns="http://www.w3.org/2000/svg"><path fill-rule="evenodd" clip-rule="evenodd" d="M33.83 13.5c-.65-.28-1.3-.6-1.93-.96L30 15.42a18 18 0 0 0 4.64 1.87 21.58 21.58 0 0 0 9.67.29 10.1 10.1 0 0 0 3.12-1.23 5.92 5.92 0 0 0 2-2c.47-.79.7-1.69.7-2.7a4.9 4.9 0 0 0-.41-2.04 4.19 4.19 0 0 0-1.23-1.56 5.74 5.74 0 0 0-2-1 9.83 9.83 0 0 0-2.74-.34c-.55 0-1.1.02-1.69.08l-1.7.19-.82.1-.78.08c-.5.06-.95.08-1.34.08-.96 0-1.68-.16-2.15-.5-.47-.33-.7-.75-.7-1.28 0-.27.07-.54.21-.81a2 2 0 0 1 .78-.74c.38-.22.88-.4 1.51-.55.63-.14 1.44-.2 2.42-.2a17.17 17.17 0 0 1 3.95.43 18.79 18.79 0 0 1 3.37 1.08l1.56-2.88A22.17 22.17 0 0 0 41.94.12C41.15.05 40.36 0 39.58 0c-1.09 0-2.05.08-2.9.23-.85.15-1.6.36-2.24.63-.65.27-1.2.6-1.66.96-.45.37-.83.77-1.11 1.2-.3.43-.5.88-.63 1.35-.13.47-.2.95-.2 1.43a4.37 4.37 0 0 0 1.82 3.63c.56.4 1.2.7 1.92.91.72.2 1.48.3 2.26.3.47 0 .97-.03 1.5-.1l1.64-.2.82-.1.8-.1c.55-.07 1.06-.1 1.54-.1 1.11 0 1.93.18 2.46.55.53.37.8.88.8 1.51 0 .4-.11.76-.32 1.1-.22.34-.56.63-1.02.87-.47.24-1.07.43-1.82.57a18.46 18.46 0 0 1-7.38-.4c-.7-.2-1.38-.44-2.03-.73ZM0 .23h3.58v17.53H0V.22Zm8.09 0h3.55l10.92 5.72V.22h3.56v17.53h-3.56V9.71L11.64 4.03v13.72H8.1V.22Zm45.3 0h3.55v9.66c0 .8.1 1.5.32 2.11a4.06 4.06 0 0 0 2.57 2.54c.64.22 1.38.33 2.22.33.84 0 1.58-.11 2.22-.33A4.06 4.06 0 0 0 66.84 12c.22-.62.33-1.33.33-2.12V.22h3.55v10.09c0 1.15-.2 2.2-.58 3.14a6.67 6.67 0 0 1-1.7 2.42 7.67 7.67 0 0 1-2.71 1.56c-1.08.36-2.3.55-3.68.55-1.37 0-2.6-.19-3.67-.55a7.66 7.66 0 0 1-2.72-1.56 6.67 6.67 0 0 1-1.7-2.42 8.16 8.16 0 0 1-.58-3.14V.22Zm30.58 0h-8.92v17.53h3.56v-4.99l5.48.01 3.3 4.98h4.35l-3.81-5.6a6.68 6.68 0 0 0 1.73-.96 5.53 5.53 0 0 0 1.95-2.94c.16-.59.24-1.2.24-1.86 0-.96-.16-1.83-.48-2.59a4.9 4.9 0 0 0-1.45-1.94A6.75 6.75 0 0 0 87.47.64c-1-.28-2.16-.42-3.5-.42Zm.09 9.47c.67 0 1.26-.08 1.76-.24.5-.15.93-.37 1.27-.66.34-.28.6-.63.76-1.03.17-.41.25-.87.25-1.37 0-.98-.33-1.73-1-2.27-.68-.53-1.7-.8-3.04-.8H78.6v6.37h5.45ZM110.98.22H96.06v17.53h15.16v-3.1h-11.6V9.77h10.06V6.84H99.61v-3.5h11.37V.22Z" fill="#2C2830"/></svg>