<svg width="699" height="651" fill="none" xmlns="http://www.w3.org/2000/svg"><g clip-rule="evenodd" stroke="#9E96C6"><path d="M341.64 33.33C265.94 9.63 188.1-29.9 108.4 42.29 28.71 114.48-21.39 177.71 10.96 259.52c32.36 81.82 164.43 30.86 202.8 103.98 38.37 73.12-45.94 139.48-9.6 204.56 36.36 65.08 64.3 106.79 181.12 65.41C502.1 592.1 491.33 486.81 580.16 425.15c88.83-61.65 184.94-153.95 53.05-318.64C501.3-58.2 417.34 57 341.64 33.33Z"/><path d="M351.1 71.25C289.53 52 226.2 19.92 161.38 78.53 96.54 137.15 55.8 188.5 82.11 254.93c26.31 66.43 133.75 25.05 164.97 84.43 31.21 59.37-37.38 113.26-7.8 166.1 29.56 52.85 52.3 86.72 147.33 53.12 95.03-33.6 86.26-119.1 158.53-169.16 72.26-50.06 150.45-125.01 43.15-258.75C481-3.06 412.7 90.5 351.11 71.25Z"/><path d="M368.81 96.42c-49.96-15.7-101.33-41.88-153.93 5.94-52.6 47.83-85.66 89.72-64.3 143.93 21.35 54.2 108.51 20.44 133.83 68.89 25.33 48.44-30.32 92.41-6.33 135.53 24 43.12 42.44 70.75 119.54 43.34 77.09-27.42 69.98-97.18 128.6-138.02 58.64-40.85 122.07-102 35.02-211.13-87.05-109.12-142.47-32.78-192.43-48.48Z"/><path d="M387.32 127.18c-40.3-12.6-81.73-33.6-124.15 4.77-42.42 38.37-69.09 71.99-51.87 115.48 17.22 43.49 87.52 16.4 107.95 55.27 20.42 38.87-24.46 74.15-5.1 108.74 19.34 34.6 34.22 56.77 96.4 34.77 62.18-22 56.44-77.96 103.73-110.74 47.28-32.77 98.44-81.84 28.23-169.38-70.2-87.55-114.9-26.31-155.2-38.9Z"/><path d="M392.08 147.05c-32.9-10.3-66.75-27.47-101.39 3.9-34.64 31.36-56.42 58.83-42.36 94.38 14.07 35.55 71.48 13.4 88.16 45.18 16.68 31.77-19.97 60.61-4.17 88.89 15.8 28.27 27.95 46.4 78.74 28.42 50.78-17.98 46.1-63.73 84.71-90.52 38.62-26.79 80.4-66.9 23.06-138.46s-93.84-21.5-126.75-31.8Z"/><path d="M401.23 161.4c-26.72-8.35-54.2-22.3-82.32 3.17-28.13 25.47-45.81 47.78-34.4 76.65 11.43 28.87 58.04 10.89 71.58 36.69 13.55 25.8-16.21 49.21-3.38 72.18 12.83 22.96 22.69 37.68 63.92 23.08 41.23-14.6 37.43-51.75 68.78-73.5 31.35-21.76 65.27-54.33 18.72-112.44s-76.19-17.46-102.9-25.82Z"/></g></svg>
